<?xml version="1.0" standalone="no"?>
<!DOCTYPE svg PUBLIC "-//W3C//DTD SVG 1.1//EN" "http://www.w3.org/Graphics/SVG/1.1/DTD/svg11.dtd" >
<!--
2013-9-30: Created.
-->
<svg>
<metadata>
Created by iconfont
</metadata>
<defs>

<font id="iconfont" horiz-adv-x="1024" >
  <font-face
    font-family="iconfont"
    font-weight="500"
    font-stretch="normal"
    units-per-em="1024"
    ascent="896"
    descent="-128"
  />
    <missing-glyph />
    
    <glyph glyph-name="ciYzhou" unicode="&#58893;" d="M1176.287179-28.225641V857.219282C1176.287179 878.670769 1195.086769 896 1218.297436 896c23.210667 0 42.010256-17.355487 42.010256-38.780718v-930.579692c0-21.372718-18.852103-38.885744-42.010256-38.885744-0.787692 0-1.522872 0.026256-2.284308 0.078769a57.002667 57.002667 0 0 0-4.437333-0.183794H48.521846C21.740308-112.351179 0-93.525333 0-70.28841c0 23.236923 21.740308 42.062769 48.521846 42.062769H1176.287179zM674.684718 835.846564h71.076103l100.824615-161.818256 100.325743 161.818256h71.076103l-142.152205-216.772923V475.897436H816.836923v143.176205l-142.152205 216.772923z"  horiz-adv-x="1260" />

    
    <glyph glyph-name="biaoti" unicode="&#58894;" d="M1264.570075 90.467451H59.293266A57.881522 57.881522 0 0 0 1.411744 133.17272a54.705097 54.705097 0 0 0 53.293353 66.704924H1259.981905a57.881522 57.881522 0 0 0 57.881522-42.705269 54.705097 54.705097 0 0 0-53.293352-66.704924zM844.22317-128H39.528844c-18.705614 0-35.293611 24.352591-35.293611 54.705097s15.176253 54.705097 35.293611 54.705096h805.047262c18.352678 0 35.293611-24.352591 35.293611-54.705096S862.928784-128 844.22317-128z m301.760372 894.340097a144.350868 144.350868 0 0 0 123.174702-55.058032 234.349576 234.349576 0 0 0 39.175908-135.17453 3.176425 3.176425 0 0 0-3.176425-3.176425h-262.231528a3.176425 3.176425 0 0 1-3.176425-3.176425 145.762613 145.762613 0 0 1 30.705441-85.410538 95.998621 95.998621 0 0 1 75.881263-31.411313 105.880832 105.880832 0 0 1 67.410797 20.82323 118.586532 118.586532 0 0 1 35.293611 50.822799 2.823489 2.823489 0 0 0 2.823489 2.117617h50.469863a153.174271 153.174271 0 0 0-45.881694-80.116496 157.76244 157.76244 0 0 0-107.998449-38.1171 151.762526 151.762526 0 0 0-116.115979 47.999311 184.938521 184.938521 0 0 0-45.881694 130.939296 184.938521 184.938521 0 0 0 41.293524 127.056999 141.174443 141.174443 0 0 0 116.821852 52.940416z m-282.348886 129.174616h45.881694a3.176425 3.176425 0 0 0 3.176425-3.176425v-470.816768a3.176425 3.176425 0 0 0-3.176425-3.176425h-45.881694a3.176425 3.176425 0 0 0-3.176425 3.176425V890.926543A3.176425 3.176425 0 0 0 864.693464 895.514713z m-154.586015-28.940761v-105.880832a3.176425 3.176425 0 0 1 3.176425-3.176425h80.822368v-43.058205h-78.351816a3.176425 3.176425 0 0 1-3.176425-3.176425v-211.761665a37.764164 37.764164 0 0 1 7.058723-26.823144 32.470122 32.470122 0 0 1 25.058463-8.470467h41.646461v-43.764077h-52.234544a73.763647 73.763647 0 0 0-58.234458 21.176166 86.469346 86.469346 0 0 0-16.235061 57.528586v211.761664a3.176425 3.176425 0 0 1-3.176425 3.529362h-66.351988V757.163759h64.940244a3.176425 3.176425 0 0 1 3.176425 3.176425V842.927233a3.176425 3.176425 0 0 0 1.76468 2.823489z m-237.878937-109.410193h46.587566a3.176425 3.176425 0 0 0 3.176425-3.176425v-332.465814a3.176425 3.176425 0 0 0-3.176425-3.176425h-46.940502a3.176425 3.176425 0 0 0-3.176425 3.176425V754.34027a3.176425 3.176425 0 0 0 4.588169 2.823489zM494.110551 884.92663a37.411227 37.411227 0 0 0 28.234889-11.293956 35.293611 35.293611 0 0 0 11.646891-27.529016 38.1171 38.1171 0 0 0-11.646891-28.234889 41.293525 41.293525 0 0 0-56.469778 0 37.411227 37.411227 0 0 0-11.293955 28.234889 35.293611 35.293611 0 0 0 13.058636 27.529016 37.411227 37.411227 0 0 0 26.823144 11.293956zM15.529189 884.92663H398.817802v-46.587567H236.820128a3.176425 3.176425 0 0 1-3.176425-3.176425v-413.641118a3.176425 3.176425 0 0 0-3.176425-3.176425H185.291457a3.176425 3.176425 0 0 0-3.176425 3.176425V836.574383a3.176425 3.176425 0 0 1-3.176425 3.176425H15.529189zM1147.395287 726.105381c55.763905 0 96.351557-38.1171 103.057343-109.057257a3.176425 3.176425 0 0 0-3.176425-3.529361h-204.702942a3.176425 3.176425 0 0 0-3.176425 3.529361 130.58636 130.58636 0 0 0 31.764249 75.881263 105.880832 105.880832 0 0 0 76.2342 33.175994z"  horiz-adv-x="1319" />

    
    <glyph glyph-name="biaozhu" unicode="&#58895;" d="M427.929152-87.45822s-5.334445-17.496979-7.254845-27.952491-2.133778-10.242134-2.133778-10.242133C251.252344-87.884976 1.173578 83.030631 1.173578 363.835799 1.173578 639.946656 198.974786 896 513.280267 896c192.040008 0 509.546155-121.411961 509.546155-532.164201 0-155.765785-79.589915-417.580329-425.475307-490.76891a93.246093 93.246093 0 0 1-1.707022 10.668889l-6.187956 28.165868c224.473432 37.127735 392.615128 213.377787 394.32215 452.787664C985.271932 716.549281 723.670765 857.165243 513.280267 857.165243 207.723276 857.165243 38.728068 605.379454 40.008335 362.555532 41.50198 56.785164 339.590748-71.881642 427.929152-87.45822z m320.06668 531.524067a256.053344 256.053344 0 0 0-49.930402-152.565118l-187.772452-260.961033-187.772453 260.747656a254.773078 254.773078 0 0 0-50.357158 152.565117A243.464055 243.464055 0 0 0 510.0796 692.650969 243.464055 243.464055 0 0 0 747.995832 444.065847zM510.0796 364.68931a76.389248 76.389248 0 1 0 76.389248 76.389248 76.389248 76.389248 0 0 0-76.389248-76.389248z m200.148364 81.083559A201.642009 201.642009 0 0 1 513.280267 651.682434a201.642009 201.642009 0 0 1-196.947698-206.122942 211.030631 211.030631 0 0 1 42.675558-126.31965L513.280267 103.301521 668.832673 319.879975a213.377787 213.377787 0 0 1 41.395291 125.892894z"  horiz-adv-x="1024" />

    
    <glyph glyph-name="chexiao_" unicode="&#58896;" d="M656 604.8H169.6l137.6 134.4c12.8 12.8 12.8 32 0 44.8-12.8 12.8-32 12.8-44.8 0L89.6 614.4c-25.6-25.6-25.6-73.6 0-99.2l169.6-169.6c6.4-6.4 16-9.6 22.4-9.6s16 3.2 22.4 9.6c12.8 12.8 12.8 32 0 44.8L169.6 524.8H640c131.2 0 236.8-41.6 236.8-220.8S771.2 83.2 640 83.2H288c-16 0-32-19.2-32-41.6s12.8-41.6 32-41.6h368c169.6 0 304 76.8 304 304 0 224-137.6 300.8-304 300.8z"  horiz-adv-x="1024" />

    
    <glyph glyph-name="daochu-" unicode="&#58897;" d="M140.83-42.72h744.865c27.775 0 50.5 22.725 50.5 50.5V184.528c0 15.15-10.1 25.25-25.25 25.25s-25.25-10.1-25.25-25.25V7.78H140.83V752.645h744.865v-156.548c0-15.15 10.1-25.25 25.25-25.25s25.25 10.1 25.25 25.25V752.645c0 27.775-22.725 50.5-50.5 50.5H140.83c-27.775 0-50.5-22.725-50.5-50.5V7.78c0-27.775 20.2-50.5 50.5-50.5zM691.273 161.803c5.05-5.05 12.624-7.575 17.674-7.575s12.625 2.525 17.675 7.575L928.62 363.8c2.525 2.525 5.05 5.05 5.05 7.575 2.525 5.05 2.525 12.625 0 20.2-2.525 2.525-2.525 5.05-5.05 7.575L726.622 601.147c-10.1 10.1-25.25 10.1-35.35 0s-10.1-25.25 0-35.35l159.073-159.072H375.652c-15.15 0-25.25-10.1-25.25-25.25s10.1-25.25 25.25-25.25h474.693L691.273 197.153c-10.1-10.1-10.1-25.25 0-35.35z"  horiz-adv-x="1024" />

    
    <glyph glyph-name="fenxiang" unicode="&#58899;" d="M724.676923 210.707692c63.015385 0 110.276923-47.261538 110.276923-110.276923s-47.261538-110.276923-110.276923-110.276923c-63.015385 0-110.276923 47.261538-110.276923 110.276923v23.630769l-267.815385 157.538462c-15.753846-15.753846-39.384615-23.630769-70.892307-23.630769-63.015385 0-110.276923 55.138462-110.276923 118.153846s47.261538 118.153846 110.276923 118.153846c31.507692 0 55.138462-15.753846 78.76923-31.507692l259.938462 157.538461v23.63077c0 63.015385 47.261538 118.153846 110.276923 118.153846 63.015385 0 110.276923-55.138462 110.276923-118.153846s-55.138462-118.153846-110.276923-118.153847c-31.507692 0-55.138462 15.753846-78.769231 31.507693l-259.938461-157.538462v-47.261538l267.815384-157.538462c15.753846 7.876923 39.384615 15.753846 70.892308 15.753846zM267.815385 328.861538c31.507692 0 47.261538 15.753846 47.261538 39.384616s-15.753846 39.384615-47.261538 39.384615-39.384615-15.753846-39.384616-39.384615 15.753846-39.384615 39.384616-39.384616z m456.861538 275.692308c23.630769 0 39.384615 15.753846 39.384615 39.384616s-15.753846 39.384615-39.384615 39.384615-39.384615-15.753846-39.384615-39.384615 15.753846-39.384615 39.384615-39.384616z m0-543.507692c23.630769 0 39.384615 15.753846 39.384615 39.384615s-15.753846 39.384615-39.384615 39.384616-39.384615-15.753846-39.384615-39.384616 15.753846-39.384615 39.384615-39.384615z"  horiz-adv-x="1024" />

    
    <glyph glyph-name="fuzhi" unicode="&#58900;" d="M627.2 770.133333H142.933333c-36.266667 0-64-32-64-70.4v-561.066666c0-38.4 29.866667-70.4 64-70.4h484.266667c36.266667 0 64 32 64 70.4V699.733333c0 38.4-27.733333 70.4-64 70.4z m-6.4-42.666666c17.066667 0 32-14.933333 32-34.133334l-2.133333-548.266666c0-19.2-14.933333-34.133333-32-34.133334H153.6c-17.066667 0-32 14.933333-32 34.133334V689.066667c2.133333 21.333333 14.933333 36.266667 34.133333 36.266666l465.066667 2.133334zM789.333333-17.066667H330.666667c-42.666667 0-78.933333 21.333333-78.933334 68.266667h32c0-27.733333 21.333333-34.133333 46.933334-34.133333H789.333333c25.6 0 44.8 21.333333 44.8 49.066666v533.333334c0 27.733333-21.333333 49.066667-44.8 49.066666h-83.2V682.666667H789.333333c42.666667 0 76.8-38.4 76.8-83.2v-533.333334c0-46.933333-34.133333-83.2-76.8-83.2z m-288 341.333334H268.8c-8.533333 0-17.066667 12.8-17.066667 21.333333s8.533333 19.2 17.066667 19.2h232.533333c8.533333 0 17.066667-12.8 17.066667-19.2 0-8.533333-8.533333-21.333333-17.066667-21.333333z m0 117.333333H268.8c-8.533333 0-19.2 12.8-19.2 19.2 0 8.533333 10.666667 19.2 19.2 19.2h232.533333c8.533333 0 17.066667-8.533333 17.066667-19.2s-8.533333-19.2-17.066667-19.2z m0 115.2H268.8c-8.533333 0-19.2 10.666667-19.2 21.333333s10.666667 19.2 19.2 19.2h232.533333c8.533333 0 19.2-6.4 19.2-19.2 0-12.8-10.666667-21.333333-19.2-21.333333z"  horiz-adv-x="1024" />

    
    <glyph glyph-name="huodongrili" unicode="&#58901;" d="M800 768h-64V800c0 19.2-12.8 32-32 32s-32-12.8-32-32v-32H352V800c0 19.2-12.8 32-32 32s-32-12.8-32-32v-32h-64c-89.6 0-160-70.4-160-160v-512c0-89.6 70.4-160 160-160h576c89.6 0 160 70.4 160 160V608c0 89.6-70.4 160-160 160z m96-672c0-51.2-44.8-96-96-96H224c-51.2 0-96 44.8-96 96V608c0 51.2 44.8 96 96 96h64v-96c0-12.8 6.4-25.6 12.8-32s25.6 0 38.4 0 19.2 19.2 12.8 32v96h320v-96c0-19.2 12.8-32 32-32s32 12.8 32 32v96h64c51.2 0 96-44.8 96-96v-512zM352 448h-64c-19.2 0-32-12.8-32-32s12.8-32 32-32h64c19.2 0 32 12.8 32 32s-12.8 32-32 32z m192 0h-64c-19.2 0-32-12.8-32-32s12.8-32 32-32h64c12.8 0 25.6 6.4 32 12.8v38.4c-6.4 6.4-19.2 12.8-32 12.8z m192 0h-64c-19.2 0-32-12.8-32-32s12.8-32 32-32h64c19.2 0 32 12.8 32 32s-12.8 32-32 32zM352 256h-64c-19.2 0-32-12.8-32-32s12.8-32 32-32h64c19.2 0 32 12.8 32 32s-12.8 32-32 32z m192 0h-64c-19.2 0-32-12.8-32-32s12.8-32 32-32h64c19.2 0 32 12.8 32 32s-12.8 32-32 32z m192 0h-64c-19.2 0-32-12.8-32-32s12.8-32 32-32h64c19.2 0 32 12.8 32 32s-12.8 32-32 32z"  horiz-adv-x="1024" />

    
    <glyph glyph-name="shoucang" unicode="&#58902;" d="M962.133333 497.066667c-4.266667 12.8-14.933333 23.466667-29.866666 23.466666l-262.4 38.4-117.333334 238.933334c-6.4 12.8-19.2 19.2-32 19.2s-25.6-8.533333-32-19.2l-117.333333-236.8-262.4-40.533334c-12.8-2.133333-25.6-10.666667-29.866667-23.466666-4.266667-12.8 0-27.733333 8.533334-36.266667l189.866666-185.6-42.666666-260.266667c-2.133333-12.8 4.266667-27.733333 14.933333-34.133333 10.666667-8.533333 25.6-8.533333 38.4-2.133333l234.666667 123.733333 234.666666-123.733333c8.533333-4.266667 25.6-4.266667 38.4 2.133333 10.666667 6.4 17.066667 21.333333 14.933334 34.133333l-44.8 260.266667 189.866666 185.6c6.4 8.533333 10.666667 23.466667 6.4 36.266667z m-245.333333-189.866667c-8.533333-8.533333-12.8-21.333333-10.666667-34.133333l38.4-224-202.666666 106.666666c-6.4 2.133333-12.8 4.266667-17.066667 4.266667-6.4 0-12.8-2.133333-17.066667-4.266667l-202.666666-106.666666 38.4 224c2.133333 12.8-2.133333 25.6-10.666667 34.133333l-164.266667 160 226.133334 32c12.8 2.133333 23.466667 10.666667 29.866666 21.333333L524.8 725.333333l100.266667-204.8c6.4-10.666667 17.066667-19.2 29.866666-21.333333l226.133334-32-164.266667-160z"  horiz-adv-x="1024" />

    
    <glyph glyph-name="tubiao" unicode="&#58903;" d="M0-72.861538V856.615385C0 877.620513 18.379487 896 42.010256 896s42.010256-18.379487 42.010257-39.384615v-929.476923c0-21.005128-18.379487-39.384615-42.010257-39.384616-23.630769 0-42.010256 18.379487-42.010256 39.384616z m1210.420513-39.384616H47.261538c-26.25641 0-47.261538 18.379487-47.261538 42.010257 0 23.630769 21.005128 42.010256 47.261538 42.010256h1163.158975c26.25641 0 49.887179-18.379487 49.887179-42.010256 0-23.630769-21.005128-42.010256-49.887179-42.010257zM257.312821 328.861538L582.892308 675.446154 861.210256 370.871795 1184.164103 714.830769c23.630769 15.753846 42.010256 18.379487 60.389743 5.251282 13.128205-10.502564 23.630769-36.758974 10.502564-60.389743-10.502564-15.753846-139.158974-154.912821-391.220513-414.851282L588.14359 546.789744l-257.312821-267.815385c-26.25641-21.005128-47.261538-21.005128-63.015384-5.251282-18.379487 15.753846-21.005128 34.133333-10.502564 55.138461z"  horiz-adv-x="1261" />

    
    <glyph glyph-name="wenjianjiadakai" unicode="&#58906;" d="M356.266667 757.333333H21.333333c-6.4 0-10.666667-4.266667-10.666666-10.666666v-725.333334c0-6.4 4.266667-10.666667 10.666666-10.666666h853.333334c6.4 0 10.666667 4.266667 10.666666 10.666666V657.066667c0 6.4-4.266667 10.666667-10.666666 10.666666H467.2l-110.933333 89.6zM362.666667 736H40.533333c-6.4 0-10.666667-4.266667-10.666666-10.666667v-704c0-6.4 4.266667-10.666667 10.666666-10.666666h821.333334c6.4 0 10.666667 4.266667 10.666666 10.666666V640c0 6.4-4.266667 10.666667-10.666666 10.666667H469.333333l-106.666666 85.333333zM998.4 576H665.6L554.666667 486.4H147.2c-10.666667 0-17.066667-6.4-21.333333-14.933333L10.666667 27.733333c-2.133333-10.666667 4.266667-23.466667 14.933333-25.6h853.333333c10.666667 0 19.2 6.4 21.333334 17.066667l117.333333 533.333333c2.133333 10.666667-4.266667 23.466667-17.066667 25.6 0-2.133333-2.133333-2.133333-2.133333-2.133333z"  horiz-adv-x="1024" />

    
    <glyph glyph-name="wenjianjiaguan" unicode="&#58907;" d="M110.2142854 805.875h367.63392893l118.52678567-94.4196427H1034.32142864c12.05357108 0 20.0892854-8.03571433 20.08928541-20.08928622v-691.07142782c0-12.05357108-8.03571433-20.0892854-20.08928541-20.08928623H110.2142854c-12.05357108 0-20.0892854 8.03571433-20.0892854 20.08928623V785.7857146c0 12.05357108 8.03571433 20.0892854 20.0892854 20.0892854z"  horiz-adv-x="1170" />

    
    <glyph glyph-name="yulan" unicode="&#58909;" d="M691.2 32h-426.666667c-59.733333 0-106.666667 46.933333-106.666666 106.666667V633.6c0 57.6 46.933333 106.666667 106.666666 106.666667h494.933334c27.733333 0 55.466667-10.666667 74.666666-32 19.2-19.2 32-46.933333 32-74.666667v-407.466667c0-12.8-10.666667-23.466667-23.466666-23.466666-12.8 0-23.466667 10.666667-23.466667 23.466666v405.333334c0 32-25.6 59.733333-59.733333 59.733333H264.533333c-32 0-59.733333-25.6-59.733333-59.733333v-494.933334c0-32 25.6-59.733333 59.733333-59.733333h426.666667c12.8 0 23.466667-10.666667 23.466667-23.466667 0-10.666667-10.666667-21.333333-23.466667-21.333333zM512 196.266667c-51.2 0-98.133333 19.2-134.4 55.466666-36.266667 36.266667-55.466667 83.2-55.466667 134.4s19.2 98.133333 55.466667 134.4c36.266667 36.266667 83.2 55.466667 134.4 55.466667s98.133333-19.2 134.4-55.466667c36.266667-36.266667 55.466667-83.2 55.466667-134.4s-19.2-98.133333-55.466667-134.4c-36.266667-36.266667-83.2-55.466667-134.4-55.466666z m0 330.666666c-78.933333 0-140.8-64-140.8-140.8s64-140.8 140.8-140.8 140.8 64 140.8 140.8c2.133333 76.8-61.866667 140.8-140.8 140.8z m228.266667-392.533333c-6.4 0-12.8 2.133333-17.066667 6.4l-108.8 106.666667c-8.533333 8.533333-8.533333 23.466667 0 34.133333 8.533333 8.533333 23.466667 8.533333 34.133333 0l108.8-106.666667c8.533333-8.533333 8.533333-23.466667 0-34.133333-6.4-4.266667-10.666667-6.4-17.066666-6.4z"  horiz-adv-x="1024" />

    
    <glyph glyph-name="zhibiao" unicode="&#58910;" d="M93.418667-128A93.397333 93.397333 0 0 0 0-34.581333V802.581333A93.44 93.44 0 0 0 93.418667 896h837.162666A93.44 93.44 0 0 0 1024 802.581333v-837.162666A93.397333 93.397333 0 0 0 930.581333-128H93.418667z m11.306666 325.461333l92.586667-68.16 138.752 205.653334 240.106667-262.101334 350.485333 490.922667-93.44 73.578667-257.066667-394.709334-240.085333 271.594667L104.704 197.461333z"  horiz-adv-x="1024" />

    
    <glyph glyph-name="fangdajing" unicode="&#58911;" d="M940.8-96c-12.8 0-25.6 6.4-35.2 16L704 121.6c-19.2 19.2-19.2 51.2 0 70.4s51.2 19.2 70.4 0l201.6-201.6c19.2-19.2 19.2-51.2 0-70.4-9.6-9.6-22.4-16-35.2-16zM460.8 6.4C224 6.4 32 198.4 32 435.2S224 864 460.8 864s428.8-192 428.8-428.8-192-428.8-428.8-428.8z m0 755.2C281.6 761.6 134.4 614.4 134.4 435.2s147.2-329.6 329.6-329.6 329.6 147.2 329.6 329.6S643.2 761.6 460.8 761.6z"  horiz-adv-x="1024" />

    
    <glyph glyph-name="zhuXzhou" unicode="&#58912;" d="M44.215795-112.193641a45.686154 45.686154 0 0 0-2.205539-0.052513c-23.210667 0.157538-41.957744 17.565538-42.010256 38.990769V857.219282C0 878.670769 18.79959 896 42.010256 896c23.210667 0 42.010256-17.355487 42.010257-38.780718V-28.225641h1127.71282c26.702769 0 48.574359-18.852103 48.574359-42.010256-0.131282-23.263179-21.897846-42.062769-48.731897-42.115282H48.521846c-1.444103 0-2.888205 0.052513-4.306051 0.157538z m808.093538 527.937641H903.220513l97.306256-140.156718 97.778872 140.156718h50.937436l-124.035282-172.924718L1158.80041 55.794872h-50.911179l-107.388718 154.25641L893.663179 55.794872h-50.911179l132.594872 187.02441-123.011282 172.924718z"  horiz-adv-x="1260" />

    
    <glyph glyph-name="zhuYzhou" unicode="&#58913;" d="M44.215795-112.193641a45.686154 45.686154 0 0 0-2.205539-0.052513c-23.210667 0.157538-41.957744 17.565538-42.010256 38.990769V857.219282C0 878.670769 18.79959 896 42.010256 896c23.210667 0 42.010256-17.355487 42.010257-38.780718V-28.225641h1127.71282c26.702769 0 48.574359-18.852103 48.574359-42.010256-0.131282-23.263179-21.897846-42.062769-48.731897-42.115282H48.521846c-1.444103 0-2.888205 0.052513-4.306051 0.157538zM254.582154 835.846564h66.034872l103.844102-164.864 103.870359 164.864h66.034872l-142.677333-216.274051V475.897436H397.259487v143.675077L254.582154 835.846564z"  horiz-adv-x="1260" />

    
    <glyph glyph-name="zhongzuo" unicode="&#58915;" d="M116.4921875 292.72884288c0-227.376869 134.50462672-304.23665538 304.23665538-304.23665538H789.01532111c19.21494678 0 32.02491105 19.21494678 32.02491105 41.63238443a39.39064075 39.39064075 0 0 1-32.02491105 41.63238446H436.74129878c-131.30213585 0-236.9843424 41.63238443-236.98434239 220.97188648S305.43916293 513.70073012 436.74129878 513.70073012h470.76619315l-134.50462673-134.50462672a32.02491105 32.02491105 0 0 1 44.8348761-44.83487609l169.73202864 169.73202942a73.65729549 73.65729549 0 0 1 0 99.27722402L814.63524965 773.10251017a32.02491105 32.02491105 0 0 1-44.83487532-44.83487609l137.7071176-134.50462671H420.72884288C254.1993051 593.76300737 116.4921875 516.90322099 116.4921875 292.72884288z"  horiz-adv-x="1152" />

    
    <glyph glyph-name="zhuYzhou1" unicode="&#58918;" d="M1218.297436-128H52.512821c-23.630769 0-42.010256 18.379487-42.010257 42.010256 0 23.630769 18.379487 42.010256 42.010257 42.010257h1165.784615c23.630769 0 42.010256-18.379487 42.010256-42.010257 0-23.630769-18.379487-42.010256-42.010256-42.010256zM10.502564-75.487179V856.615385C10.502564 877.620513 28.882051 896 52.512821 896s42.010256-18.379487 42.010256-39.384615v-945.23077c0-18.379487-18.379487-39.384615-42.010256-39.384615-23.630769 0-42.010256 26.25641-42.010257 52.512821zM244.184615 835.610256H315.076923l99.774359-162.789743 99.774359 162.789743h70.892308L446.358974 620.307692V475.897436h-57.764102v144.410256L244.184615 835.610256z"  horiz-adv-x="1260" />

    
    <glyph glyph-name="zhuXzhou1" unicode="&#58921;" d="M10.502564-75.487179V856.615385C10.502564 877.620513 28.882051 896 52.512821 896s42.010256-18.379487 42.010256-39.384615v-945.23077c0-18.379487-18.379487-39.384615-42.010256-39.384615-23.630769 0-42.010256 26.25641-42.010257 52.512821zM1218.297436-128H52.512821c-23.630769 0-42.010256 18.379487-42.010257 42.010256 0 23.630769 18.379487 42.010256 42.010257 42.010257h1165.784615c23.630769 0 42.010256-18.379487 42.010256-42.010257 0-23.630769-18.379487-42.010256-42.010256-42.010256zM911.097436 368.246154h49.887179l97.148718-139.158975 97.148718 139.158975h52.512821l-123.405128-173.292308 131.282051-186.420513h-49.88718l-107.651282 154.912821-107.651282-154.912821h-49.887179l133.907692 186.420513z"  horiz-adv-x="1260" />

    
    <glyph glyph-name="wangluoxian" unicode="&#58922;" d="M1218.297436 61.046154H52.512821c-23.630769 0-42.010256 18.379487-42.010257 42.010256 0 23.630769 18.379487 42.010256 42.010257 42.010257h1165.784615c23.630769 0 42.010256-18.379487 42.010256-42.010257 0-21.005128-18.379487-42.010256-42.010256-42.010256zM1218.297436 315.733333H52.512821c-23.630769 0-42.010256 18.379487-42.010257 42.010257 0 21.005128 18.379487 39.384615 42.010257 39.384615h1165.784615c23.630769 0 42.010256-18.379487 42.010256-42.010256 0-21.005128-18.379487-39.384615-42.010256-39.384616zM1218.297436 567.794872H52.512821c-23.630769 0-42.010256 18.379487-42.010257 42.010256 0 23.630769 18.379487 42.010256 42.010257 42.010257h1165.784615c23.630769 0 42.010256-18.379487 42.010256-42.010257 0-23.630769-18.379487-42.010256-42.010256-42.010256z"  horiz-adv-x="1260" />

    
    <glyph glyph-name="tuli1" unicode="&#58923;" d="M1150.030769 215.958974H396.471795c-23.630769 0-42.010256 18.379487-42.010257 42.010257 0 23.630769 18.379487 42.010256 42.010257 42.010256h753.558974c23.630769 0 42.010256-18.379487 42.010257-42.010256 0-23.630769-18.379487-42.010256-42.010257-42.010257zM1150.030769 468.020513H396.471795c-23.630769 0-42.010256 18.379487-42.010257 42.010256 0 23.630769 18.379487 42.010256 42.010257 42.010257h753.558974c23.630769 0 42.010256-18.379487 42.010257-42.010257 0-23.630769-18.379487-42.010256-42.010257-42.010256zM173.292308 510.030769m-68.266667 0a68.266667 68.266667 0 1 1 136.533333 0 68.266667 68.266667 0 1 1-136.533333 0ZM173.292308 257.969231m-68.266667 0a68.266667 68.266667 0 1 1 136.533333 0 68.266667 68.266667 0 1 1-136.533333 0Z"  horiz-adv-x="1260" />

    
    <glyph glyph-name="wuchaxian1" unicode="&#58924;" d="M979.364103 92.553846H225.805128c-23.630769 0-42.010256 18.379487-42.010256 42.010257 0 23.630769 18.379487 42.010256 42.010256 42.010256h753.558975c23.630769 0 42.010256-18.379487 42.010256-42.010256 0-23.630769-18.379487-42.010256-42.010256-42.010257zM979.364103 612.430769H225.805128c-23.630769 0-42.010256 18.379487-42.010256 42.010257 0 23.630769 18.379487 42.010256 42.010256 42.010256h753.558975c23.630769 0 42.010256-18.379487 42.010256-42.010256 0-23.630769-18.379487-42.010256-42.010256-42.010257zM627.528205 654.441026v-517.251282c0-23.630769-18.379487-42.010256-42.010256-42.010257-23.630769 0-42.010256 18.379487-42.010257 42.010257V654.441026c0 23.630769 18.379487 42.010256 42.010257 42.010256 23.630769 0 42.010256-18.379487 42.010256-42.010256z"  horiz-adv-x="1260" />

    
    <glyph glyph-name="narrow" unicode="&#58925;" d="M251.733 593.067L512 332.8l260.267 260.267 81.066-76.8L512 174.933 170.667 516.267z"  horiz-adv-x="1024" />

    
    <glyph glyph-name="narrow_right" unicode="&#58926;" d="M302.933333 123.733333L563.2 384 302.933333 644.266667 379.733333 725.333333l341.333334-341.333333-341.333334-341.333333-76.8 81.066666z"  horiz-adv-x="1024" />

    
    <glyph glyph-name="tianjia" unicode="&#58927;" d="M511.968005-128c-282.732102 0-511.925344 229.235903-511.925345 512.010665C0.04266 666.764097 229.235903 896 511.968005 896s511.925344-229.235903 511.925344-511.989335c0-282.774762-229.193243-512.010665-511.925344-512.010665z m0 960.009332c-247.387923 0-447.934676-200.568084-447.934677-447.998667s200.546754-447.998667 447.934677-447.998667 447.934676 200.568084 447.934676 447.998667S759.355927 832.009332 511.968005 832.009332z m191.972004-479.994001h-159.97667v-159.998a31.995334 31.995334 0 0 0-63.990668 0v159.97667h-159.97667a31.995334 31.995334 0 0 0 0 63.990668h159.97667v160.01933a31.995334 31.995334 0 0 0 63.990668 0v-159.998h159.97667a31.995334 31.995334 0 0 0 0-63.990668z"  horiz-adv-x="1024" />

    
    <glyph glyph-name="lajitong" unicode="&#58928;" d="M139.2 684.8h739.2c14.4 0 27.2 11.2 27.2 27.2 0 14.4-11.2 27.2-27.2 27.2H139.2c-16-1.6-27.2-12.8-27.2-27.2 0-14.4 11.2-27.2 27.2-27.2z m236.8-137.6v-443.2c0-14.4 11.2-27.2 27.2-27.2 14.4 0 27.2 11.2 27.2 27.2V547.2c0 14.4-11.2 27.2-27.2 27.2s-27.2-12.8-27.2-27.2z m211.2 1.6v-444.8c0-14.4 11.2-27.2 27.2-27.2 14.4 0 27.2 11.2 27.2 27.2V548.8c0 14.4-11.2 27.2-27.2 27.2-14.4 0-27.2-12.8-27.2-27.2zM350.4 764.8h294.4c14.4 0 27.2 11.2 27.2 27.2 0 14.4-11.2 27.2-27.2 27.2H350.4c-14.4 0-27.2-11.2-27.2-27.2s11.2-27.2 27.2-27.2zM772.8 684.8v-664c0-12.8-9.6-22.4-22.4-22.4H265.6c-12.8 0-22.4 9.6-22.4 22.4V684.8c0 14.4-11.2 27.2-27.2 27.2-14.4 0-27.2-11.2-27.2-27.2v-664c0-41.6 33.6-75.2 75.2-75.2h483.2c41.6 0 75.2 33.6 75.2 75.2V684.8c0 14.4-11.2 27.2-27.2 27.2-11.2 0-22.4-12.8-22.4-27.2z"  horiz-adv-x="1024" />

    
    <glyph glyph-name="zhixian" unicode="&#58931;" d="M100.181026-127.949683l-100.181024 100.155865 923.818977 923.818976 100.155865-100.130706zM101.967277-102.841531l-76.305636 76.330794L925.45428 873.307061l76.330794-76.330794z"  horiz-adv-x="1024" />

    
    <glyph glyph-name="jiantou" unicode="&#58932;" d="M392.364356 896h612.879208a18.756436 18.756436 0 0 0 18.756436-18.756436v-605.021782a23.318812 23.318812 0 0 0-23.572277-23.318812h-98.344555a16.475248 16.475248 0 0 0-16.475247 16.728713l2.027723 346.99406a18.756436 18.756436 0 0 1-31.936634 13.433663L106.455446-122.423762a18.756436 18.756436 0 0 0-25.346535 0L6.843564-48.158416a18.756436 18.756436 0 0 0 0 25.346535l775.09703 762.930693a18.756436 18.756436 0 0 1-13.940594 33.710891l-375.635644 2.027723a18.756436 18.756436 0 0 0-18.50297 18.756435V877.243564a18.756436 18.756436 0 0 0 18.50297 18.756436zM390.843564 863.556436a19.263366 19.263366 0 0 0 19.263367 18.756435h578.661386a15.714851 15.714851 0 0 0 17.742574-15.461386v-586.011881c0-18.249505-4.815842-17.99604-15.968317-19.263366h-78.574257c-8.871287 0-11.405941 7.09703-11.405941 15.968316V628.340594a25.346535 25.346535 0 0 1-41.821782 17.489109l-745.188119-737.584158c-14.194059-13.940594-22.30495-15.207921-36.245544 0l-41.568317 41.568316c-12.926733 12.926733-14.70099 20.530693-1.774258 33.710891l768 757.100991c11.152475 11.152475-2.534653 47.39802-25.346534 46.637623H410.613861a21.79802 21.79802 0 0 0-21.798019 22.304951z"  horiz-adv-x="1024" />

    
    <glyph glyph-name="yuanxing" unicode="&#58933;" d="M512 896a512 512 0 1 1 512-512A512 512 0 0 1 512 896z m0-977.016924a465.016924 465.016924 0 1 0 465.016924 465.016924 465.016924 465.016924 0 0 0-465.016924-465.016924z"  horiz-adv-x="1024" />

    
    <glyph glyph-name="juxing" unicode="&#58934;" d="M0 896v-1024h1023.782913V896z m978.628789-978.845877h-933.474666v933.474666h933.474666z"  horiz-adv-x="1024" />

    
    <glyph glyph-name="duihua" unicode="&#58935;" d="M176.267701 896h681.031537c114.867864 0 152.271457-62.543713 148.592415-153.906587v-429.221557c-4.700998-106.487824-73.580838-150.840719-159.016367-156.768064l-550.221157-5.518562L19.295246-127.795609H18.068899l4.905389 868.662675A153.906587 153.906587 0 0 0 176.472093 895.386826zM278.054528 196.368862L61.80862-20.899002 63.239358 722.267465c2.043912 83.800399 47.827545 131.219162 136.328942 133.876248h630.138124c96.472655 0 131.627944-27.184032 135.102595-119.977645v-416.34491c-6.540519-93.815569-64.792016-122.634731-136.328942-119.568863"  horiz-adv-x="1024" />

    
    <glyph glyph-name="wenzi" unicode="&#58936;" d="M1027.557456 896v-154.065206H596.55799v-869.934794h-159.811865V741.934794H0V896h1027.557456zM1006.760021 877.93907v-117.396045H576.581507v-870.208445h-121.227151V760.543025H19.702833V877.93907h987.057188z"  horiz-adv-x="1027" />

    
    <glyph glyph-name="zhexian" unicode="&#58883;" d="M0-93.28813600000001V852.610169C0 878.644068 17.355932 896 43.389831 896s43.389831-17.355932 43.38983-43.389831v-945.898305c0-26.033898-17.355932-34.711864-43.38983-34.711864s-43.389831 17.355932-43.389831 34.711864z m1067.389831-34.711864H43.389831c-26.033898 0-43.389831 17.355932-43.389831 43.389831s17.355932 43.389831 43.389831 43.38983h1024c26.033898 0 43.389831-17.355932 43.38983-43.38983-8.677966-26.033898-26.033898-43.389831-43.38983-43.389831zM746.305085 167.05084699999998c-17.355932 0-43.389831 17.355932-52.067797 34.711865L494.644068 470.779661 277.694915 175.72881400000006l-112.813559 86.779661L442.576271 635.661017c17.355932 17.355932 34.711864 26.033898 60.745763 26.033898 26.033898 0 43.389831-8.677966 52.067797-26.033898l190.915254-269.016949 286.372881 390.508474 112.813559-78.101695L807.050847 201.76271199999996c-17.355932-17.355932-34.711864-34.711864-60.745762-34.711865z"  horiz-adv-x="1109" />

    
    <glyph glyph-name="shuzhuangtu" unicode="&#58884;" d="M785.066667 571.733333h315.733333V-128H785.066667zM401.066667 887.466667h307.2V-128H401.066667V887.466667zM8.533333 264.533333h307.2V-128H8.533333V264.533333z"  horiz-adv-x="1109" />

    
    <glyph glyph-name="jizi" unicode="&#58885;" d="M204.8 423.384615v-519.876923H7.876923v78.769231h118.153846V494.276923h378.092308v-512h133.907692V888.123077h378.092308v-905.846154h157.538461v-78.769231H945.230769V809.353846H708.923077v-905.846154H425.353846V423.384615z"  horiz-adv-x="1181" />

    
    <glyph glyph-name="zhexiankuang" unicode="&#58886;" d="M65.163636 309.527273l344.436364 344.436363 269.963636-204.8L1079.854545 858.763636l46.545455-55.854545v-781.963636H65.163636V309.527273z m1089.163637-418.909091H55.854545c-27.927273 0-46.545455 9.309091-46.545454 27.927273s18.618182 27.927273 46.545454 27.927272h1098.472728c27.927273 0 46.545455-9.309091 46.545454-27.927272 0-18.618182-18.618182-27.927273-46.545454-27.927273z"  horiz-adv-x="1210" />

    
    <glyph glyph-name="baifenbi" unicode="&#58887;" d="M1154.327273-109.381818H55.854545c-27.927273 0-46.545455 9.309091-46.545454 27.927273s18.618182 27.927273 46.545454 27.927272h1098.472728c27.927273 0 46.545455-9.309091 46.545454-27.927272 0-18.618182-18.618182-27.927273-46.545454-27.927273zM204.8 421.236364h335.127273v-428.218182H204.8V421.236364zM651.636364 598.109091h335.127272v-595.781818H651.636364V598.109091zM651.636364 896h344.436363v-372.363636H651.636364zM204.8 877.381818h344.436364v-493.381818H204.8z"  horiz-adv-x="1210" />

    
    <glyph glyph-name="sandiantu" unicode="&#58889;" d="M8.533333-76.8s0 8.533333 0 0V853.333333C8.533333 870.4 34.133333 896 51.2 896s42.666667-17.066667 42.666667-42.666667v-878.933333h964.266666c25.6 0 42.666667-17.066667 42.666667-42.666667s-17.066667-42.666667-42.666667-42.666666H76.8c-8.533333-8.533333-17.066667-8.533333-25.6-8.533334-17.066667 0-42.666667 17.066667-42.666667 42.666667z m230.4 162.133333c-25.6 0-51.2 17.066667-51.2 42.666667s17.066667 42.666667 42.666667 42.666667 51.2-17.066667 51.2-42.666667-17.066667-42.666667-42.666667-42.666667z m136.533334 170.666667c-51.2 0-93.866667 42.666667-93.866667 85.333333s42.666667 85.333333 93.866667 85.333334 93.866667-42.666667 93.866666-85.333334-42.666667-85.333333-93.866666-85.333333zM682.666667 366.933333c-68.266667 0-128 59.733333-128 128S614.4 622.933333 682.666667 622.933333s128-59.733333 128-128S750.933333 366.933333 682.666667 366.933333z m273.066666-34.133333c-34.133333 0-51.2 25.6-51.2 51.2s25.6 51.2 51.2 51.2 51.2-25.6 51.2-51.2-25.6-51.2-51.2-51.2z m-170.666666 409.6c-42.666667 0-76.8 34.133333-76.8 68.266667s34.133333 76.8 76.8 76.8 76.8-34.133333 76.8-76.8-34.133333-68.266667-76.8-68.266667zM622.933333 119.466667c-34.133333 0-68.266667 34.133333-68.266666 68.266666s34.133333 68.266667 68.266666 68.266667 68.266667-34.133333 68.266667-68.266667-34.133333-68.266667-68.266667-68.266666z"  horiz-adv-x="1109" />

    
    <glyph glyph-name="duibitiaoxingtu" unicode="&#58890;" d="M640.512 247.466667h452.266667v-238.933334h-452.266667zM640.512 520.533333h366.933333v-238.933333h-366.933333zM640.512 793.6h187.733333V554.666667h-187.733333zM119.466667-68.266667h1006.933333c25.6 0 42.666667-8.533333 42.666667-25.6s-17.066667-25.6-42.666667-25.6H119.466667c-25.6 0-42.666667 8.533333-42.666667 25.6 0 17.066667 17.066667 25.6 42.666667 25.6zM597.333333 520.533333v-238.933333H238.933333V520.533333H597.333333z m0 273.066667V554.666667H418.133333V793.6H597.333333z m0-546.133333v-238.933334H145.066667V247.466667H597.333333z"  horiz-adv-x="1194" />

    
    <glyph glyph-name="duijitiaoxingtu" unicode="&#58891;" d="M685.037037 298.666667v-284.444445h-540.444444v284.444445h540.444444zM1054.814815 298.666667v-284.444445h-417.185185v284.444445zM912.592593 658.962963v-293.925926h-417.185186V658.962963zM154.074074 658.962963h341.333333v-284.444444h-341.333333zM1166.222222-128H47.407407c-28.444444 0-47.407407 9.481481-47.407407 28.444444s18.962963 28.444444 47.407407 28.444445h1118.814815c28.444444 0 47.407407-9.481481 47.407408-28.444445-9.481481-18.962963-28.444444-28.444444-47.407408-28.444444z"  horiz-adv-x="1213" />

    
    <glyph glyph-name="duijitu" unicode="&#58892;" d="M1156.654545-109.381818H58.181818c-27.927273 0-46.545455 9.309091-46.545454 27.927273s18.618182 27.927273 46.545454 27.927272h1098.472727c27.927273 0 46.545455-9.309091 46.545455-27.927272-9.309091-18.618182-27.927273-27.927273-46.545455-27.927273z m-949.527272 530.618182h335.127272v-428.218182h-335.127272V421.236364z m446.836363 74.472727h335.127273v-493.381818h-335.127273V495.709091zM653.963636 896h335.127273v-372.363636h-335.127273zM207.127273 728.436364h344.436363v-269.963637h-344.436363z"  horiz-adv-x="1210" />

    
    <glyph glyph-name="pubutu" unicode="&#58898;" d="M976.738462-112.246154H47.261538c-23.630769 0-39.384615 7.876923-39.384615 23.630769s15.753846 23.630769 39.384615 23.63077h929.476924c23.630769 0 39.384615-7.876923 39.384615-23.63077 0-15.753846-15.753846-23.630769-39.384615-23.630769zM70.892308 336.738462h133.907692v-362.338462H70.892308V336.738462z m212.676923 315.076923h133.907692v-504.123077H283.569231V651.815385zM575.015385 817.230769H708.923077v-362.338461H575.015385V817.230769z m267.815384-78.769231h133.907693v-504.123076h-133.907693V738.461538z"  horiz-adv-x="1024" />

    
    <glyph glyph-name="tiaoxingtu" unicode="&#58904;" d="M850.707692 643.938462v-165.415385H94.523077V643.938462h756.184615zM70.892308-33.476923h929.476923c23.630769 0 39.384615-7.876923 39.384615-23.630769 0-7.876923-15.753846-23.630769-39.384615-23.63077H70.892308c-23.630769 0-39.384615 7.876923-39.384616 23.63077 0 15.753846 15.753846 23.630769 39.384616 23.630769z m779.815384 252.061538v-157.538461H94.523077v157.538461h756.184615zM91.608615 407.630769h590.769231v-157.538461h-590.769231zM91.608615 832.984615h338.707693v-157.538461h-338.707693z"  horiz-adv-x="1102" />

    
    <glyph glyph-name="hengbaifenbi" unicode="&#58908;" d="M666.074074 298.666667v-284.444445h-521.481481v284.444445h521.481481zM1054.814815 298.666667v-284.444445h-388.740741v284.444445zM1054.814815 658.962963v-293.925926h-559.407408V658.962963zM154.074074 658.962963h426.666667v-284.444444h-426.666667zM1166.222222-128H47.407407c-28.444444 0-47.407407 9.481481-47.407407 28.444444s18.962963 28.444444 47.407407 28.444445h1118.814815c28.444444 0 47.407407-9.481481 47.407408-28.444445-9.481481-18.962963-28.444444-28.444444-47.407408-28.444444z"  horiz-adv-x="1213" />

    
    <glyph glyph-name="mianjitu" unicode="&#58937;" d="M92.16-5.12h1208.32c30.72 0 51.2-10.24 51.2-30.72s-20.48-30.72-51.2-30.72H92.16c-30.72 0-51.2 10.24-51.2 30.72 0 20.48 20.48 30.72 51.2 30.72zM102.4 414.72V179.2h1126.4V742.4c-92.16-61.44-204.8-102.4-358.4-102.4C645.12 640 614.4 896 378.88 896 225.28 896 133.12 732.16 102.4 414.72zM102.4 343.04V179.2h1126.4V435.2C1146.88 609.28 1034.24 691.2 880.64 691.2 655.36 691.2 419.84 343.04 102.4 343.04z"  horiz-adv-x="1433" />

    
    <glyph glyph-name="bingtu" unicode="&#58938;" d="M512 384H1024C1024 663.272727 791.272727 896 512 896v-512zM1014.690909 309.527273C986.763636 58.181818 772.654545-128 512-128 232.727273-128 0 104.727273 0 384 0 644.654545 186.181818 858.763636 437.527273 886.690909v-577.163636h577.163636z"  horiz-adv-x="1024" />

    
    <glyph glyph-name="leidatu" unicode="&#58939;" d="M344.436364 86.109091L186.181818 449.163636 558.545455 709.818182l372.363636-260.654546L772.654545-34.909091zM1117.090909 477.090909v18.618182c0 9.309091 0 18.618182-9.309091 27.927273v9.309091L577.163636 896h-37.236363L18.618182 523.636364v-9.309091c-18.618182 0-18.618182-9.309091-18.618182-18.618182v-18.618182h9.309091l186.181818-558.545454-9.309091-18.618182 18.618182-9.309091c0-9.309091 9.309091-18.618182 18.618182-18.618182h660.945454c9.309091 0 18.618182 9.309091 27.927273 18.618182L1117.090909 477.090909zM744.727273 374.690909l46.545454-390.981818-214.109091 325.818182v46.545454l148.945455 37.236364 18.618182-18.618182z m-232.727273 27.927273l-242.036364 55.854545L512 616.727273v-214.109091z m-18.618182-46.545455L390.981818 197.818182 251.345455 411.927273l242.036363-55.854546z m37.236364-55.854545L744.727273-53.527273 418.909091 151.272727l111.709091 148.945455z m46.545454 102.4V626.036364L698.181818 430.545455l-121.018182-27.927273z m0 297.890909V830.836364l456.145455-325.818182-279.272727-55.854546-176.872728 251.345455zM512 812.218182v-130.327273L204.8 477.090909 74.472727 505.018182 512 812.218182zM65.163636 458.472727l130.327273-27.927272 158.254546-279.272728-130.327273-186.181818L65.163636 458.472727z m325.818182-353.745454h9.309091l325.818182-176.872728h-465.454546l130.327273 176.872728z m474.763637-186.181818H837.818182l-46.545455 456.145454c0 9.309091 0 18.618182-9.309091 27.927273l269.963637 55.854545-186.181818-539.927272z"  horiz-adv-x="1117" />

    
    <glyph glyph-name="duijimianjitu" unicode="&#58940;" d="M83.781818-16.290909h1098.472727c27.927273 0 46.545455-9.309091 46.545455-27.927273s-18.618182-27.927273-46.545455-27.927273H83.781818c-27.927273 0-46.545455 9.309091-46.545454 27.927273 0 18.618182 18.618182 27.927273 46.545454 27.927273zM102.4 551.563636v-428.218181h1051.927273V765.672727c-55.854545-83.781818-148.945455-130.327273-269.963637-130.327272C707.490909 635.345455 679.563636 868.072727 465.454545 868.072727 325.818182 868.072727 204.8 765.672727 102.4 551.563636zM102.4 337.454545v-214.10909h1051.927273V486.4C1089.163636 384 1005.381818 337.454545 912.290909 337.454545 763.345455 337.454545 670.254545 588.8 474.763636 588.8c-139.636364 0-260.654545-83.781818-372.363636-251.345455z"  horiz-adv-x="1303" />

    
    <glyph glyph-name="baifenbimianjitu" unicode="&#58941;" d="M83.781818-16.290909h1098.472727c27.927273 0 46.545455-9.309091 46.545455-27.927273s-18.618182-27.927273-46.545455-27.927273H83.781818c-27.927273 0-46.545455 9.309091-46.545454 27.927273 0 18.618182 18.618182 27.927273 46.545454 27.927273zM93.090909 886.690909h1042.618182v-716.8H93.090909zM93.090909 169.890909V439.854545c83.781818 139.636364 204.8 204.8 353.745455 204.8 223.418182 0 428.218182-232.727273 688.872727-167.563636v-307.2H93.090909z"  horiz-adv-x="1303" />

    
    <glyph glyph-name="shutu" unicode="&#58942;" d="M819.2 896h409.6v-430.08H819.2zM0 128h737.28V-128H0zM0 896h737.28v-686.08H0zM819.2 384h409.6v-512H819.2z"  horiz-adv-x="1228" />

    
    <glyph glyph-name="xuritu" unicode="&#58943;" d="M884.363636 30.254545c-93.090909-102.4-223.418182-158.254545-372.363636-158.254545-27.927273 0-55.854545 0-83.781818 9.309091L465.454545 20.945455h55.854546c102.4 0 186.181818 37.236364 251.345454 102.4l111.709091-93.09091z m46.545455 55.854546l-121.018182 93.090909c46.545455 55.854545 65.163636 130.327273 65.163636 214.109091 0 186.181818-139.636364 344.436364-316.50909 363.054545V896c260.654545-27.927273 465.454545-242.036364 465.454545-512 0-111.709091-37.236364-214.109091-93.090909-297.890909z m-567.854546-195.490909C223.418182-62.836364 111.709091 30.254545 55.854545 151.272727L186.181818 207.127273c46.545455-83.781818 111.709091-139.636364 204.8-167.563637l-27.927273-148.945454zM27.927273 216.436364C9.309091 272.290909 0 328.145455 0 384 0 663.272727 223.418182 886.690909 493.381818 896v-148.945455c-195.490909-9.309091-344.436364-167.563636-344.436363-363.054545 0-37.236364 9.309091-83.781818 18.618181-121.018182l-139.636363-46.545454zM27.927273 216.436364C9.309091 272.290909 0 328.145455 0 384 0 663.272727 223.418182 886.690909 502.690909 896v-148.945455c-195.490909 0-353.745455-167.563636-353.745454-363.054545 0-37.236364 9.309091-83.781818 18.618181-121.018182l-139.636363-46.545454zM428.218182-118.690909l27.927273 139.636364h55.854545c102.4 0 204.8 46.545455 269.963636 111.70909l102.4-102.4c-93.090909-102.4-223.418182-158.254545-372.363636-158.254545-27.927273 0-55.854545 0-83.781818 9.309091zM232.727273 290.909091c-9.309091 27.927273-18.618182 65.163636-18.618182 93.090909 0 158.254545 121.018182 279.272727 279.272727 288.581818V523.636364c-74.472727 0-130.327273-65.163636-130.327273-139.636364 0-18.618182 9.309091-27.927273 9.309091-46.545455l-139.636363-46.545454z m27.927272-55.854546l139.636364 55.854546c27.927273-37.236364 65.163636-55.854545 111.709091-55.854546 83.781818 0 148.945455 65.163636 148.945455 148.945455 0 65.163636-37.236364 121.018182-93.09091 139.636364V672.581818c139.636364-27.927273 242.036364-139.636364 242.036364-288.581818 0-158.254545-130.327273-288.581818-288.581818-288.581818-121.018182 0-214.109091 55.854545-260.654546 139.636363zM232.727273 290.909091c-9.309091 27.927273-18.618182 65.163636-18.618182 93.090909 0 158.254545 121.018182 288.581818 279.272727 288.581818V523.636364c-65.163636 0-130.327273-65.163636-130.327273-139.636364 0-18.618182 9.309091-27.927273 9.309091-46.545455l-139.636363-46.545454z"  horiz-adv-x="1024" />

    
    <glyph glyph-name="yanse" unicode="&#58944;" d="M2960.290909 560.872727h-512c-46.545455 0-74.472727-27.927273-74.472727-74.472727 0-18.618182 9.309091-37.236364 18.618182-46.545455l260.654545-232.727272c27.927273-27.927273 83.781818-27.927273 111.709091 0l260.654545 232.727272c27.927273 27.927273 27.927273 74.472727 0 102.4-27.927273 9.309091-46.545455 18.618182-65.163636 18.618182zM2066.618182 393.309091v-372.363636c0-55.854545-37.236364-93.090909-93.090909-93.09091h-325.818182v465.454546h418.909091zM2066.618182 765.672727v-372.363636h-418.909091v465.454545h325.818182c55.854545 0 93.090909-46.545455 93.090909-93.090909zM1266.036364 393.309091h390.981818v-465.454546h-390.981818zM1266.036364 858.763636h390.981818v-465.454545h-390.981818zM893.672727 393.309091h372.363637v-465.454546h-372.363637zM893.672727 858.763636h372.363637v-465.454545h-372.363637zM502.690909 393.309091h390.981818v-465.454546H502.690909zM502.690909 858.763636h390.981818v-465.454545H502.690909zM502.690909 393.309091v-465.454546H167.563636c-46.545455 0-93.090909 37.236364-93.090909 93.09091v372.363636h428.218182zM502.690909 858.763636v-465.454545H74.472727v372.363636c0 46.545455 37.236364 93.090909 93.090909 93.090909h335.127273z"  horiz-adv-x="3072" />

    
    <glyph glyph-name="xiancuxi" unicode="&#58945;" d="M0 896h1582.545455v-465.454545H0zM0 290.909091h1582.545455v-186.181818H0zM0-34.90909099999999h1582.545455v-93.090909H0zM2960.290909 467.781818h-512c-46.545455 0-74.472727-27.927273-74.472727-74.472727 0-18.618182 9.309091-37.236364 18.618182-46.545455l260.654545-232.727272c27.927273-27.927273 83.781818-27.927273 111.709091 0l260.654545 232.727272c27.927273 27.927273 27.927273 74.472727 0 102.4-27.927273 9.309091-46.545455 18.618182-65.163636 18.618182z"  horiz-adv-x="3072" />

    
    <glyph glyph-name="xuxian" unicode="&#58946;" d="M2681.018182 467.781818h-512c-46.545455 0-74.472727-27.927273-74.472727-74.472727 0-18.618182 9.309091-37.236364 18.618181-46.545455l260.654546-232.727272c27.927273-27.927273 83.781818-27.927273 111.709091 0l260.654545 232.727272c27.927273 27.927273 27.927273 74.472727 0 102.4-27.927273 9.309091-46.545455 18.618182-65.163636 18.618182zM0-34.90909099999999h1303.272727v-93.090909H0zM1256.727273 663.272727h-279.272728v186.181818h279.272728v-186.181818z m-465.454546 0h-279.272727v186.181818h279.272727v-186.181818z m-465.454545 0h-279.272727v186.181818h279.272727v-186.181818zM1303.272727 244.36363600000004h-186.181818V337.45454500000005h186.181818v-93.090909z m-279.272727 0H837.818182V337.45454500000005h186.181818v-93.090909zM744.727273 244.36363600000004H558.545455V337.45454500000005h186.181818v-93.090909zM465.454545 244.36363600000004H279.272727V337.45454500000005h186.181818v-93.090909zM186.181818 244.36363600000004H0V337.45454500000005h186.181818v-93.090909z"  horiz-adv-x="2792" />

    
    <glyph glyph-name="quxian" unicode="&#58947;" d="M2713.6 503.466667h-469.333333c-42.666667 0-68.266667-25.6-68.266667-68.266667 0-17.066667 8.533333-34.133333 17.066667-42.666667l238.933333-213.333333c25.6-25.6 76.8-25.6 102.4 0l238.933333 213.333333c25.6 25.6 25.6 68.266667 0 93.866667-25.6 8.533333-42.666667 17.066667-59.733333 17.066667zM42.666667 85.33333300000004h1544.533333v-170.666666H42.666667zM1032.533333 230.39999999999998c-17.066667 0-42.666667 0-59.733333 8.533333-153.6 42.666667-204.8 162.133333-238.933333 256-42.666667 110.933333-76.8 179.2-238.933334 187.733334-93.866667 0-187.733333-68.266667-290.133333-221.866667l-51.2-68.266667L8.533333 486.4 59.733333 554.666667C196.266667 759.466667 341.333333 861.866667 494.933333 853.333333c273.066667-8.533333 341.333333-170.666667 392.533334-290.133333 42.666667-93.866667 59.733333-136.533333 136.533333-162.133333 17.066667 0 110.933333-8.533333 426.666667 256l68.266666 51.2L1621.333333 580.266667l-68.266666-51.2c-230.4-204.8-401.066667-298.666667-520.533334-298.666667z"  horiz-adv-x="2816" />

    
    <glyph glyph-name="baifenbimianjitu-copy" unicode="&#58948;" d="M83.781818-16.290909000000056h1098.472727c27.927273 0 46.545455-9.309091 46.545455-27.927273s-18.618182-27.927273-46.545455-27.927273H83.781818c-27.927273 0-46.545455 9.309091-46.545454 27.927273 0 18.618182 18.618182 27.927273 46.545454 27.927273zM93.090909 886.690909h1042.618182v-716.8H93.090909zM93.090909 169.89090899999997V439.854545c83.781818 139.636364 204.8 204.8 353.745455 204.8 223.418182 0 428.218182-232.727273 688.872727-167.563636v-307.2H93.090909z"  horiz-adv-x="1303" />

    
    <glyph glyph-name="duijimianjitu-copy" unicode="&#58949;" d="M83.781818-16.290909000000056h1098.472727c27.927273 0 46.545455-9.309091 46.545455-27.927273s-18.618182-27.927273-46.545455-27.927273H83.781818c-27.927273 0-46.545455 9.309091-46.545454 27.927273 0 18.618182 18.618182 27.927273 46.545454 27.927273zM102.4 551.563636v-428.218181h1051.927273V765.672727c-55.854545-83.781818-148.945455-130.327273-269.963637-130.327272C707.490909 635.345455 679.563636 868.072727 465.454545 868.072727 325.818182 868.072727 204.8 765.672727 102.4 551.563636zM102.4 337.45454500000005v-214.10909h1051.927273V486.4C1089.163636 384 1005.381818 337.45454500000005 912.290909 337.45454500000005 763.345455 337.45454500000005 670.254545 588.8 474.763636 588.8c-139.636364 0-260.654545-83.781818-372.363636-251.345455z"  horiz-adv-x="1303" />

    
    <glyph glyph-name="shutu-copy" unicode="&#58950;" d="M819.2 896h409.6v-430.08H819.2zM0 128h737.28V-128H0zM0 896h737.28v-686.08H0zM819.2 384h409.6v-512H819.2z"  horiz-adv-x="1228" />

    
    <glyph glyph-name="xuritu-copy" unicode="&#58951;" d="M884.363636 30.254545000000007c-93.090909-102.4-223.418182-158.254545-372.363636-158.254545-27.927273 0-55.854545 0-83.781818 9.309091L465.454545 20.945455000000038h55.854546c102.4 0 186.181818 37.236364 251.345454 102.4l111.709091-93.09091z m46.545455 55.854546l-121.018182 93.090909c46.545455 55.854545 65.163636 130.327273 65.163636 214.109091 0 186.181818-139.636364 344.436364-316.50909 363.054545V896c260.654545-27.927273 465.454545-242.036364 465.454545-512 0-111.709091-37.236364-214.109091-93.090909-297.890909z m-567.854546-195.490909C223.418182-62.836364 111.709091 30.254545000000007 55.854545 151.27272700000003L186.181818 207.12727299999995c46.545455-83.781818 111.709091-139.636364 204.8-167.563637l-27.927273-148.945454zM27.927273 216.43636400000003C9.309091 272.29090900000006 0 328.14545499999997 0 384 0 663.272727 223.418182 886.690909 493.381818 896v-148.945455c-195.490909-9.309091-344.436364-167.563636-344.436363-363.054545 0-37.236364 9.309091-83.781818 18.618181-121.018182l-139.636363-46.545454zM27.927273 216.43636400000003C9.309091 272.29090900000006 0 328.14545499999997 0 384 0 663.272727 223.418182 886.690909 502.690909 896v-148.945455c-195.490909 0-353.745455-167.563636-353.745454-363.054545 0-37.236364 9.309091-83.781818 18.618181-121.018182l-139.636363-46.545454zM428.218182-118.69090900000003l27.927273 139.636364h55.854545c102.4 0 204.8 46.545455 269.963636 111.70909l102.4-102.4c-93.090909-102.4-223.418182-158.254545-372.363636-158.254545-27.927273 0-55.854545 0-83.781818 9.309091zM232.727273 290.909091c-9.309091 27.927273-18.618182 65.163636-18.618182 93.090909 0 158.254545 121.018182 279.272727 279.272727 288.581818V523.636364c-74.472727 0-130.327273-65.163636-130.327273-139.636364 0-18.618182 9.309091-27.927273 9.309091-46.545455l-139.636363-46.545454z m27.927272-55.854546l139.636364 55.854546c27.927273-37.236364 65.163636-55.854545 111.709091-55.854546 83.781818 0 148.945455 65.163636 148.945455 148.945455 0 65.163636-37.236364 121.018182-93.09091 139.636364V672.581818c139.636364-27.927273 242.036364-139.636364 242.036364-288.581818 0-158.254545-130.327273-288.581818-288.581818-288.581818-121.018182 0-214.109091 55.854545-260.654546 139.636363zM232.727273 290.909091c-9.309091 27.927273-18.618182 65.163636-18.618182 93.090909 0 158.254545 121.018182 288.581818 279.272727 288.581818V523.636364c-65.163636 0-130.327273-65.163636-130.327273-139.636364 0-18.618182 9.309091-27.927273 9.309091-46.545455l-139.636363-46.545454z"  horiz-adv-x="1024" />

    
    <glyph glyph-name="leidatu-copy" unicode="&#58952;" d="M344.436364 86.10909100000003L186.181818 449.163636 558.545455 709.818182l372.363636-260.654546L772.654545-34.90909099999999zM1117.090909 477.090909v18.618182c0 9.309091 0 18.618182-9.309091 27.927273v9.309091L577.163636 896h-37.236363L18.618182 523.636364v-9.309091c-18.618182 0-18.618182-9.309091-18.618182-18.618182v-18.618182h9.309091l186.181818-558.545454-9.309091-18.618182 18.618182-9.309091c0-9.309091 9.309091-18.618182 18.618182-18.618182h660.945454c9.309091 0 18.618182 9.309091 27.927273 18.618182L1117.090909 477.090909zM744.727273 374.69090900000003l46.545454-390.981818-214.109091 325.818182v46.545454l148.945455 37.236364 18.618182-18.618182z m-232.727273 27.927273l-242.036364 55.854545L512 616.727273v-214.109091z m-18.618182-46.545455L390.981818 197.81818199999998 251.345455 411.927273l242.036363-55.854546z m37.236364-55.854545L744.727273-53.52727300000004 418.909091 151.27272700000003l111.709091 148.945455z m46.545454 102.4V626.036364L698.181818 430.545455l-121.018182-27.927273z m0 297.890909V830.836364l456.145455-325.818182-279.272727-55.854546-176.872728 251.345455zM512 812.218182v-130.327273L204.8 477.090909 74.472727 505.018182 512 812.218182zM65.163636 458.472727l130.327273-27.927272 158.254546-279.272728-130.327273-186.181818L65.163636 458.472727z m325.818182-353.745454h9.309091l325.818182-176.872728h-465.454546l130.327273 176.872728z m474.763637-186.181818H837.818182l-46.545455 456.145454c0 9.309091 0 18.618182-9.309091 27.927273l269.963637 55.854545-186.181818-539.927272z"  horiz-adv-x="1117" />

    
    <glyph glyph-name="bingtu-copy" unicode="&#58953;" d="M512 384H1024C1024 663.272727 791.272727 896 512 896v-512zM1014.690909 309.52727300000004C986.763636 58.18181800000002 772.654545-128 512-128 232.727273-128 0 104.72727299999997 0 384 0 644.654545 186.181818 858.763636 437.527273 886.690909v-577.163636h577.163636z"  horiz-adv-x="1024" />

    
    <glyph glyph-name="mianjitu-copy" unicode="&#58954;" d="M92.16-5.1200000000000045h1208.32c30.72 0 51.2-10.24 51.2-30.72s-20.48-30.72-51.2-30.72H92.16c-30.72 0-51.2 10.24-51.2 30.72 0 20.48 20.48 30.72 51.2 30.72zM102.4 414.72V179.20000000000005h1126.4V742.4c-92.16-61.44-204.8-102.4-358.4-102.4C645.12 640 614.4 896 378.88 896 225.28 896 133.12 732.16 102.4 414.72zM102.4 343.03999999999996V179.20000000000005h1126.4V435.2C1146.88 609.28 1034.24 691.2 880.64 691.2 655.36 691.2 419.84 343.03999999999996 102.4 343.03999999999996z"  horiz-adv-x="1433" />

    
    <glyph glyph-name="hengbaifenbi-copy" unicode="&#58955;" d="M666.074074 298.66666699999996v-284.444445h-521.481481v284.444445h521.481481zM1054.814815 298.66666699999996v-284.444445h-388.740741v284.444445zM1054.814815 658.962963v-293.925926h-559.407408V658.962963zM154.074074 658.962963h426.666667v-284.444444h-426.666667zM1166.222222-128H47.407407c-28.444444 0-47.407407 9.481481-47.407407 28.444444s18.962963 28.444444 47.407407 28.444445h1118.814815c28.444444 0 47.407407-9.481481 47.407408-28.444445-9.481481-18.962963-28.444444-28.444444-47.407408-28.444444z"  horiz-adv-x="1213" />

    
    <glyph glyph-name="duijitu1" unicode="&#58957;" d="M207.127273 421.236364h335.127272v-428.218182h-335.127272V421.236364z m446.836363 74.472727h335.127273v-493.381818h-335.127273V495.709091zM653.963636 896h335.127273v-372.363636h-335.127273zM207.127273 728.436364h344.436363v-269.963637h-344.436363zM1154.327273-109.38181799999995H55.854545c-27.927273 0-46.545455 9.309091-46.545454 27.927273s18.618182 27.927273 46.545454 27.927272h1098.472728c27.927273 0 46.545455-9.309091 46.545454-27.927272-9.309091-18.618182-27.927273-27.927273-46.545454-27.927273z"  horiz-adv-x="1210" />

    
    <glyph glyph-name="jizi1" unicode="&#58958;" d="M204.8 423.384615v-519.876923H7.876923v78.769231h118.153846V494.276923h378.092308v-512h133.907692V888.123077h378.092308v-905.846154h157.538461v-78.769231H945.230769V809.353846H708.923077v-905.846154H425.353846V423.384615z"  horiz-adv-x="1181" />

    
    <glyph glyph-name="shuzhuangtu1" unicode="&#58959;" d="M785.066667 571.733333h315.733333V-128H785.066667zM401.066667 887.466667h307.2V-128H401.066667V887.466667zM8.533333 264.533333h307.2V-128H8.533333V264.533333z"  horiz-adv-x="1109" />

    
    <glyph glyph-name="zhexian1" unicode="&#58960;" d="M0-93.57983200000001V852.97479C0 878.789916 17.210084 896 43.02521 896s43.02521-17.210084 43.02521-43.02521v-937.94958c0-25.815126-17.210084-43.02521-43.02521-43.02521s-43.02521 17.210084-43.02521 34.420168z m1058.420168-34.420168H43.02521c-25.815126 0-43.02521 17.210084-43.02521 43.02521s17.210084 43.02521 43.02521 43.02521h1015.394958c25.815126 0 43.02521-17.210084 43.02521-43.02521s-17.210084-43.02521-43.02521-43.02521zM740.033613 173.176471c-17.210084 0-43.02521 8.605042-60.235294 25.815126L499.092437 465.747899 283.966387 173.176471 172.10084 259.226891l275.361345 370.016806c17.210084 17.210084 34.420168 25.815126 60.235294 25.815127 25.815126 0 43.02521-8.605042 51.630252-25.815127l189.310924-266.756302 275.361345 378.621849 111.865546-77.445378-335.596638-464.672269c-17.210084-17.210084-34.420168-25.815126-60.235295-25.815126z"  horiz-adv-x="1109" />

    
    <glyph glyph-name="sandiantu1" unicode="&#58962;" d="M8.533333-76.8s0 8.533333 0 0V853.333333C8.533333 870.4 34.133333 896 51.2 896s42.666667-17.066667 42.666667-42.666667v-887.466666h964.266666c25.6 0 42.666667-17.066667 42.666667-42.666667s-17.066667-42.666667-42.666667-42.666667H51.2c-17.066667 0-42.666667 17.066667-42.666667 42.666667zM230.4 170.666667c-25.6 0-42.666667-17.066667-42.666667-42.666667s25.6-42.666667 51.2-42.666667 42.666667 17.066667 42.666667 42.666667-25.6 42.666667-51.2 42.666667zM375.466667 426.666667c-51.2 0-93.866667-42.666667-93.866667-85.333334s42.666667-85.333333 93.866667-85.333333c51.2 0 93.866667 42.666667 93.866666 85.333333s-42.666667 85.333333-93.866666 85.333334zM682.666667 622.933333c-68.266667 0-128-59.733333-128-128S614.4 366.933333 682.666667 366.933333s128 59.733333 128 128S750.933333 622.933333 682.666667 622.933333zM955.733333 435.2c-25.6 0-51.2-25.6-51.2-51.2s17.066667-51.2 51.2-51.2c25.6 0 51.2 25.6 51.2 51.2s-25.6 51.2-51.2 51.2zM785.066667 887.466667c-42.666667 0-76.8-42.666667-76.8-76.8s34.133333-68.266667 76.8-68.266667 76.8 25.6 76.8 68.266667-34.133333 76.8-76.8 76.8zM622.933333 256c-34.133333 0-68.266667-34.133333-68.266666-68.266667s34.133333-68.266667 68.266666-68.266666 68.266667 34.133333 68.266667 68.266666-34.133333 68.266667-68.266667 68.266667z"  horiz-adv-x="1109" />

    
    <glyph glyph-name="baifenbi1" unicode="&#58963;" d="M204.8 421.236364h335.127273v-428.218182H204.8V421.236364zM651.636364 598.109091h335.127272v-595.781818H651.636364V598.109091zM651.636364 896h335.127272v-372.363636H651.636364zM204.8 877.381818h335.127273v-493.381818H204.8zM1154.327273-109.38181799999995H55.854545c-27.927273 0-46.545455 9.309091-46.545454 27.927273s18.618182 27.927273 46.545454 27.927272h1098.472728c27.927273 0 46.545455-9.309091 46.545454-27.927272 0-18.618182-18.618182-27.927273-46.545454-27.927273z"  horiz-adv-x="1210" />

    
    <glyph glyph-name="zhexiankuang1" unicode="&#58965;" d="M65.163636 309.52727300000004l344.436364 344.436363 269.963636-204.8L1079.854545 858.763636l46.545455-55.854545v-781.963636H65.163636V309.52727300000004zM1154.327273-109.38181799999995H55.854545c-27.927273 0-46.545455 9.309091-46.545454 27.927273s18.618182 27.927273 46.545454 27.927272h1098.472728c27.927273 0 46.545455-9.309091 46.545454-27.927272 0-18.618182-18.618182-27.927273-46.545454-27.927273z"  horiz-adv-x="1210" />

    
    <glyph glyph-name="duijitiaoxingtu1" unicode="&#58966;" d="M685.037037 298.666667v-284.444445h-540.444444v284.444445h540.444444zM1054.814815 298.666667v-284.444445h-417.185185v284.444445zM912.592593 658.962963v-284.444444h-417.185186v284.444444zM154.074074 658.962963h341.333333v-284.444444h-341.333333zM1166.222222-128H47.407407c-28.444444 0-47.407407 9.481481-47.407407 28.444444s18.962963 28.444444 47.407407 28.444445h1118.814815c28.444444 0 47.407407-9.481481 47.407408-28.444445-9.481481-18.962963-28.444444-28.444444-47.407408-28.444444z"  horiz-adv-x="1213" />

    
    <glyph glyph-name="pubutu1" unicode="&#58967;" d="M70.892308 336.738462h133.907692v-362.338462H70.892308V336.738462z m212.676923 315.076923h133.907692v-504.123077H283.569231V651.815385zM575.015385 817.230769H708.923077v-362.338461H575.015385V817.230769z m267.815384-78.769231h133.907693v-504.123076h-133.907693V738.461538zM575.015385 817.230769H708.923077v-362.338461H575.015385zM976.738462-112.24615400000005H47.261538c-23.630769 0-39.384615 7.876923-39.384615 23.630769s15.753846 23.630769 39.384615 23.63077h929.476924c23.630769 0 39.384615-7.876923 39.384615-23.63077 0-15.753846-15.753846-23.630769-39.384615-23.630769z"  horiz-adv-x="1024" />

    
    <glyph glyph-name="duibitiaoxingtu1" unicode="&#58968;" d="M640.512 247.466667h452.266667v-238.933334h-452.266667zM640.512 520.533333h366.933333v-238.933333h-366.933333zM640.512 793.6h187.733333V554.666667h-187.733333zM597.333333 520.533333v-238.933333H238.933333V520.533333H597.333333z m0 273.066667V554.666667H418.133333V793.6H597.333333z m0-546.133333v-238.933334H145.066667V247.466667H597.333333zM119.466667-68.266667h1006.933333c25.6 0 42.666667-8.533333 42.666667-25.6s-17.066667-25.6-42.666667-25.6H119.466667c-25.6 0-42.666667 8.533333-42.666667 25.6 0 17.066667 17.066667 25.6 42.666667 25.6z"  horiz-adv-x="1194" />

    
    <glyph glyph-name="tiaoxingtu1" unicode="&#58969;" d="M850.707692 643.938462v-165.415385H94.523077V643.938462h756.184615z m0-425.353847v-157.538461H94.523077v157.538461h756.184615zM91.608615 407.630769h590.769231v-157.538461h-590.769231zM91.608615 832.984615h338.707693v-157.538461h-338.707693zM70.892308-33.476923h929.476923c23.630769 0 39.384615-7.876923 39.384615-23.630769 0-7.876923-15.753846-23.630769-39.384615-23.63077H70.892308c-23.630769 0-39.384615 7.876923-39.384616 23.63077 0 15.753846 15.753846 23.630769 39.384616 23.630769z"  horiz-adv-x="1102" />

    
    <glyph glyph-name="abc_chart_s" unicode="&#59036;" d="M844.8 870.4H166.4C83.2 870.4 12.8 800 12.8 716.8v-684.8c0-83.2 70.4-153.6 153.6-153.6h684.8c83.2 0 153.6 70.4 153.6 153.6V716.8C998.4 806.4 934.4 870.4 844.8 870.4z m76.8-832c0-44.8-32-76.8-76.8-76.8H166.4c-44.8 0-76.8 32-76.8 76.8V716.8c0 44.8 32 76.8 76.8 76.8h684.8c44.8 0 76.8-32 76.8-76.8v-678.4zM275.2 339.20000000000005c-19.2 0-32-12.8-32-38.4v-153.6c0-19.2 19.2-38.4 38.4-38.4s38.4 19.2 38.4 38.4V300.79999999999995c-6.4 25.6-19.2 38.4-44.8 38.4zM505.6 716.8c-19.2 0-38.4-12.8-38.4-32v-531.2c0-19.2 19.2-38.4 38.4-38.4s38.4 19.2 38.4 38.4V684.8c0 19.2-19.2 32-38.4 32zM736 492.8c-19.2 0-38.4-19.2-38.4-38.4v-307.2c0-19.2 19.2-38.4 38.4-38.4s38.4 19.2 38.4 38.4V454.4c0 19.2-19.2 38.4-38.4 38.4z"  horiz-adv-x="1024" />

    
    <glyph glyph-name="abc_data_s" unicode="&#59039;" d="M851.2 857.6H172.8C96 857.6 38.4 793.6 38.4 723.2v-678.4c0-76.8 64-134.4 134.4-134.4h678.4c76.8 0 134.4 64 134.4 134.4V723.2c0 76.8-57.6 134.4-134.4 134.4z m-512-883.2H172.8c-19.2 0-38.4 6.4-51.2 19.2-12.8 12.8-19.2 32-19.2 51.2v172.8h236.8v-243.2z m0 307.2H102.4V518.4h236.8v-236.8z m275.2-307.2H409.6v236.8h204.8v-236.8z m0 307.2H409.6V518.4h204.8v-236.8z m307.2-236.8c0-19.2-6.4-38.4-19.2-51.2s-32-19.2-51.2-19.2h-172.8v236.8h236.8v-166.4z m0 236.8h-236.8V518.4h236.8v-236.8z m0 307.2H102.4V723.2c0 19.2 6.4 38.4 19.2 51.2 12.8 12.8 32 19.2 51.2 19.2h678.4c19.2 0 38.4-6.4 51.2-19.2 12.8-12.8 19.2-32 19.2-51.2v-134.4z"  horiz-adv-x="1024" />

    


  </font>
</defs>
</svg>
